<mxfile host="app.diagrams.net" modified="2023-12-11T14:20:26.376Z" agent="Mozilla/5.0 (Windows NT 10.0; Win64; x64) AppleWebKit/537.36 (KHTML, like Gecko) Chrome/119.0.0.0 Safari/537.36" etag="ukOUe18pY5sFDvvX6L5z" version="22.1.7" type="device">
  <diagram name="Сторінка-1" id="5qRnLGwqMZBOowdWbV07">
    <mxGraphModel dx="933" dy="398" grid="1" gridSize="10" guides="1" tooltips="1" connect="1" arrows="1" fold="1" page="1" pageScale="1" pageWidth="827" pageHeight="1169" math="0" shadow="0">
      <root>
        <mxCell id="0" />
        <mxCell id="1" parent="0" />
        <mxCell id="jd9A4PB5AfPvnsOYDj_V-208" value="" style="rounded=0;whiteSpace=wrap;html=1;fillColor=default;" parent="1" vertex="1">
          <mxGeometry x="100" y="1110" width="646" height="450" as="geometry" />
        </mxCell>
        <mxCell id="jd9A4PB5AfPvnsOYDj_V-1" value="" style="rounded=0;whiteSpace=wrap;html=1;fillColor=default;" parent="1" vertex="1">
          <mxGeometry x="94" y="70" width="646" height="450" as="geometry" />
        </mxCell>
        <mxCell id="dMnFFqZk8rE7Yz4pQNAD-8" style="edgeStyle=orthogonalEdgeStyle;rounded=0;orthogonalLoop=1;jettySize=auto;html=1;exitX=1;exitY=0.5;exitDx=0;exitDy=0;" parent="1" source="dMnFFqZk8rE7Yz4pQNAD-2" edge="1">
          <mxGeometry relative="1" as="geometry">
            <mxPoint x="520" y="300" as="targetPoint" />
          </mxGeometry>
        </mxCell>
        <mxCell id="dMnFFqZk8rE7Yz4pQNAD-2" value="Розроблення програмного забезпечення&lt;br&gt;&lt;div style=&quot;&quot;&gt;&lt;span style=&quot;background-color: initial;&quot;&gt;&lt;span style=&quot;white-space: pre;&quot;&gt;&amp;nbsp;&amp;nbsp;&amp;nbsp;&amp;nbsp;&lt;/span&gt;&lt;span style=&quot;white-space: pre;&quot;&gt;&amp;nbsp;&amp;nbsp;&amp;nbsp;&amp;nbsp;        &lt;/span&gt;&lt;/span&gt;&lt;span style=&quot;background-color: initial;&quot;&gt;А0&lt;/span&gt;&lt;/div&gt;" style="whiteSpace=wrap;html=1;aspect=fixed;" parent="1" vertex="1">
          <mxGeometry x="370" y="260" width="80" height="80" as="geometry" />
        </mxCell>
        <mxCell id="dMnFFqZk8rE7Yz4pQNAD-3" value="" style="endArrow=classic;html=1;rounded=0;entryX=0;entryY=0.5;entryDx=0;entryDy=0;" parent="1" target="dMnFFqZk8rE7Yz4pQNAD-2" edge="1">
          <mxGeometry width="50" height="50" relative="1" as="geometry">
            <mxPoint x="290" y="300" as="sourcePoint" />
            <mxPoint x="330" y="260" as="targetPoint" />
          </mxGeometry>
        </mxCell>
        <mxCell id="dMnFFqZk8rE7Yz4pQNAD-4" value="Технічні умови" style="text;html=1;strokeColor=none;fillColor=none;align=center;verticalAlign=middle;whiteSpace=wrap;rounded=0;" parent="1" vertex="1">
          <mxGeometry x="290" y="270" width="60" height="30" as="geometry" />
        </mxCell>
        <mxCell id="dMnFFqZk8rE7Yz4pQNAD-5" value="" style="endArrow=classic;html=1;rounded=0;entryX=0.5;entryY=1;entryDx=0;entryDy=0;" parent="1" target="dMnFFqZk8rE7Yz4pQNAD-2" edge="1">
          <mxGeometry width="50" height="50" relative="1" as="geometry">
            <mxPoint x="410" y="400" as="sourcePoint" />
            <mxPoint x="410" y="360" as="targetPoint" />
          </mxGeometry>
        </mxCell>
        <mxCell id="dMnFFqZk8rE7Yz4pQNAD-6" value="Розробник програмного забезпечення та тестувальник" style="text;html=1;strokeColor=none;fillColor=none;align=center;verticalAlign=middle;whiteSpace=wrap;rounded=0;" parent="1" vertex="1">
          <mxGeometry x="330" y="380" width="160" height="80" as="geometry" />
        </mxCell>
        <mxCell id="dMnFFqZk8rE7Yz4pQNAD-9" value="Готове програмне забезпечення" style="text;html=1;strokeColor=none;fillColor=none;align=center;verticalAlign=middle;whiteSpace=wrap;rounded=0;" parent="1" vertex="1">
          <mxGeometry x="460" y="260" width="130" height="30" as="geometry" />
        </mxCell>
        <mxCell id="dMnFFqZk8rE7Yz4pQNAD-10" value="" style="endArrow=classic;html=1;rounded=0;entryX=0.5;entryY=0;entryDx=0;entryDy=0;" parent="1" target="dMnFFqZk8rE7Yz4pQNAD-2" edge="1">
          <mxGeometry width="50" height="50" relative="1" as="geometry">
            <mxPoint x="410" y="220" as="sourcePoint" />
            <mxPoint x="450" y="150" as="targetPoint" />
          </mxGeometry>
        </mxCell>
        <mxCell id="dMnFFqZk8rE7Yz4pQNAD-11" value="Технічні вимоги" style="text;html=1;strokeColor=none;fillColor=none;align=center;verticalAlign=middle;whiteSpace=wrap;rounded=0;" parent="1" vertex="1">
          <mxGeometry x="353" y="190" width="120" height="30" as="geometry" />
        </mxCell>
        <mxCell id="jd9A4PB5AfPvnsOYDj_V-2" value="" style="rounded=0;whiteSpace=wrap;html=1;" parent="1" vertex="1">
          <mxGeometry x="94" y="70" width="646" height="50" as="geometry" />
        </mxCell>
        <mxCell id="jd9A4PB5AfPvnsOYDj_V-3" value="" style="rounded=0;whiteSpace=wrap;html=1;" parent="1" vertex="1">
          <mxGeometry x="94" y="480" width="646" height="40" as="geometry" />
        </mxCell>
        <mxCell id="jd9A4PB5AfPvnsOYDj_V-4" value="&lt;div style=&quot;&quot;&gt;&lt;span style=&quot;font-size: 9px; background-color: initial;&quot;&gt;USED AT:&lt;/span&gt;&lt;/div&gt;&lt;font style=&quot;&quot;&gt;&lt;div style=&quot;&quot;&gt;&lt;font size=&quot;1&quot;&gt;&lt;br&gt;&lt;/font&gt;&lt;/div&gt;&lt;/font&gt;&lt;div style=&quot;&quot;&gt;&lt;br&gt;&lt;/div&gt;" style="rounded=0;whiteSpace=wrap;html=1;align=left;" parent="1" vertex="1">
          <mxGeometry x="94" y="70" width="56" height="50" as="geometry" />
        </mxCell>
        <mxCell id="jd9A4PB5AfPvnsOYDj_V-5" value="" style="rounded=0;whiteSpace=wrap;html=1;" parent="1" vertex="1">
          <mxGeometry x="150" y="70" width="260" height="50" as="geometry" />
        </mxCell>
        <mxCell id="jd9A4PB5AfPvnsOYDj_V-6" value="" style="rounded=0;whiteSpace=wrap;html=1;" parent="1" vertex="1">
          <mxGeometry x="410" y="70" width="20" height="50" as="geometry" />
        </mxCell>
        <mxCell id="jd9A4PB5AfPvnsOYDj_V-7" value="" style="rounded=0;whiteSpace=wrap;html=1;" parent="1" vertex="1">
          <mxGeometry x="430" y="70" width="110" height="50" as="geometry" />
        </mxCell>
        <mxCell id="jd9A4PB5AfPvnsOYDj_V-8" value="" style="rounded=0;whiteSpace=wrap;html=1;" parent="1" vertex="1">
          <mxGeometry x="540" y="70" width="110" height="50" as="geometry" />
        </mxCell>
        <mxCell id="jd9A4PB5AfPvnsOYDj_V-9" value="&lt;b&gt;&lt;br&gt;A-0&lt;/b&gt;" style="rounded=0;whiteSpace=wrap;html=1;strokeColor=default;" parent="1" vertex="1">
          <mxGeometry x="94" y="480" width="120" height="40" as="geometry" />
        </mxCell>
        <mxCell id="jd9A4PB5AfPvnsOYDj_V-10" value="&lt;b&gt;&lt;i&gt;Розроблення програмного забезпечення&lt;/i&gt;&lt;/b&gt;" style="rounded=0;whiteSpace=wrap;html=1;align=center;" parent="1" vertex="1">
          <mxGeometry x="214" y="480" width="356" height="40" as="geometry" />
        </mxCell>
        <mxCell id="jd9A4PB5AfPvnsOYDj_V-11" value="" style="rounded=0;whiteSpace=wrap;html=1;" parent="1" vertex="1">
          <mxGeometry x="570" y="480" width="170" height="40" as="geometry" />
        </mxCell>
        <mxCell id="jd9A4PB5AfPvnsOYDj_V-13" value="" style="rounded=0;whiteSpace=wrap;html=1;" parent="1" vertex="1">
          <mxGeometry x="430" y="70" width="110" height="10" as="geometry" />
        </mxCell>
        <mxCell id="jd9A4PB5AfPvnsOYDj_V-14" value="" style="rounded=0;whiteSpace=wrap;html=1;" parent="1" vertex="1">
          <mxGeometry x="430" y="80" width="110" height="10" as="geometry" />
        </mxCell>
        <mxCell id="jd9A4PB5AfPvnsOYDj_V-15" value="" style="rounded=0;whiteSpace=wrap;html=1;" parent="1" vertex="1">
          <mxGeometry x="430" y="90" width="110" height="10" as="geometry" />
        </mxCell>
        <mxCell id="jd9A4PB5AfPvnsOYDj_V-16" value="" style="rounded=0;whiteSpace=wrap;html=1;" parent="1" vertex="1">
          <mxGeometry x="430" y="100" width="110" height="10" as="geometry" />
        </mxCell>
        <mxCell id="jd9A4PB5AfPvnsOYDj_V-17" value="" style="rounded=0;whiteSpace=wrap;html=1;" parent="1" vertex="1">
          <mxGeometry x="430" y="110" width="110" height="10" as="geometry" />
        </mxCell>
        <mxCell id="jd9A4PB5AfPvnsOYDj_V-18" value="" style="rounded=0;whiteSpace=wrap;html=1;" parent="1" vertex="1">
          <mxGeometry x="540" y="70" width="110" height="10" as="geometry" />
        </mxCell>
        <mxCell id="jd9A4PB5AfPvnsOYDj_V-19" value="" style="rounded=0;whiteSpace=wrap;html=1;" parent="1" vertex="1">
          <mxGeometry x="540" y="80" width="110" height="10" as="geometry" />
        </mxCell>
        <mxCell id="jd9A4PB5AfPvnsOYDj_V-20" value="" style="rounded=0;whiteSpace=wrap;html=1;" parent="1" vertex="1">
          <mxGeometry x="540" y="90" width="110" height="10" as="geometry" />
        </mxCell>
        <mxCell id="jd9A4PB5AfPvnsOYDj_V-21" value="" style="rounded=0;whiteSpace=wrap;html=1;" parent="1" vertex="1">
          <mxGeometry x="540" y="100" width="110" height="10" as="geometry" />
        </mxCell>
        <mxCell id="jd9A4PB5AfPvnsOYDj_V-22" value="" style="rounded=0;whiteSpace=wrap;html=1;" parent="1" vertex="1">
          <mxGeometry x="540" y="110" width="110" height="10" as="geometry" />
        </mxCell>
        <mxCell id="jd9A4PB5AfPvnsOYDj_V-23" value="" style="rounded=0;whiteSpace=wrap;html=1;" parent="1" vertex="1">
          <mxGeometry x="410" y="70" width="20" height="10" as="geometry" />
        </mxCell>
        <mxCell id="jd9A4PB5AfPvnsOYDj_V-24" value="" style="rounded=0;whiteSpace=wrap;html=1;" parent="1" vertex="1">
          <mxGeometry x="410" y="80" width="20" height="10" as="geometry" />
        </mxCell>
        <mxCell id="jd9A4PB5AfPvnsOYDj_V-25" value="" style="rounded=0;whiteSpace=wrap;html=1;" parent="1" vertex="1">
          <mxGeometry x="410" y="90" width="20" height="10" as="geometry" />
        </mxCell>
        <mxCell id="jd9A4PB5AfPvnsOYDj_V-26" value="" style="rounded=0;whiteSpace=wrap;html=1;" parent="1" vertex="1">
          <mxGeometry x="410" y="100" width="20" height="10" as="geometry" />
        </mxCell>
        <mxCell id="jd9A4PB5AfPvnsOYDj_V-27" value="" style="rounded=0;whiteSpace=wrap;html=1;" parent="1" vertex="1">
          <mxGeometry x="410" y="110" width="20" height="10" as="geometry" />
        </mxCell>
        <mxCell id="jd9A4PB5AfPvnsOYDj_V-28" value="" style="rounded=0;whiteSpace=wrap;html=1;" parent="1" vertex="1">
          <mxGeometry x="680" y="500" width="60" height="20" as="geometry" />
        </mxCell>
        <mxCell id="jd9A4PB5AfPvnsOYDj_V-29" value="&lt;font style=&quot;font-size: 10px;&quot;&gt;NODE:&lt;/font&gt;" style="text;html=1;strokeColor=none;fillColor=none;align=center;verticalAlign=middle;whiteSpace=wrap;rounded=0;" parent="1" vertex="1">
          <mxGeometry x="94" y="485" width="40" height="10" as="geometry" />
        </mxCell>
        <mxCell id="jd9A4PB5AfPvnsOYDj_V-30" value="&lt;font style=&quot;font-size: 10px;&quot;&gt;TITLE:&lt;/font&gt;" style="text;html=1;strokeColor=none;fillColor=none;align=center;verticalAlign=middle;whiteSpace=wrap;rounded=0;" parent="1" vertex="1">
          <mxGeometry x="214" y="480" width="40" height="20" as="geometry" />
        </mxCell>
        <mxCell id="jd9A4PB5AfPvnsOYDj_V-31" value="&lt;font style=&quot;font-size: 10px;&quot;&gt;NUMBER:&lt;/font&gt;" style="text;html=1;strokeColor=none;fillColor=none;align=center;verticalAlign=middle;whiteSpace=wrap;rounded=0;" parent="1" vertex="1">
          <mxGeometry x="570" y="475" width="50" height="30" as="geometry" />
        </mxCell>
        <mxCell id="jd9A4PB5AfPvnsOYDj_V-32" value="" style="rounded=0;whiteSpace=wrap;html=1;fillColor=default;" parent="1" vertex="1">
          <mxGeometry x="99" y="585" width="646" height="450" as="geometry" />
        </mxCell>
        <mxCell id="jd9A4PB5AfPvnsOYDj_V-94" value="" style="group" parent="1" connectable="0" vertex="1">
          <mxGeometry x="95" y="985" width="650" height="50" as="geometry" />
        </mxCell>
        <mxCell id="jd9A4PB5AfPvnsOYDj_V-43" value="" style="rounded=0;whiteSpace=wrap;html=1;" parent="jd9A4PB5AfPvnsOYDj_V-94" vertex="1">
          <mxGeometry x="4" y="10" width="646" height="40" as="geometry" />
        </mxCell>
        <mxCell id="jd9A4PB5AfPvnsOYDj_V-49" value="&lt;b&gt;&lt;br&gt;A1&lt;/b&gt;" style="rounded=0;whiteSpace=wrap;html=1;strokeColor=default;" parent="jd9A4PB5AfPvnsOYDj_V-94" vertex="1">
          <mxGeometry x="4" y="10" width="120" height="40" as="geometry" />
        </mxCell>
        <mxCell id="jd9A4PB5AfPvnsOYDj_V-50" value="&lt;i&gt;&lt;b&gt;Розроблення&lt;br/&gt;програмного забезпечення&lt;/b&gt;&lt;/i&gt;" style="rounded=0;whiteSpace=wrap;html=1;align=center;" parent="jd9A4PB5AfPvnsOYDj_V-94" vertex="1">
          <mxGeometry x="124" y="10" width="356" height="40" as="geometry" />
        </mxCell>
        <mxCell id="jd9A4PB5AfPvnsOYDj_V-51" value="" style="rounded=0;whiteSpace=wrap;html=1;" parent="jd9A4PB5AfPvnsOYDj_V-94" vertex="1">
          <mxGeometry x="480" y="10" width="170" height="40" as="geometry" />
        </mxCell>
        <mxCell id="jd9A4PB5AfPvnsOYDj_V-67" value="" style="rounded=0;whiteSpace=wrap;html=1;" parent="jd9A4PB5AfPvnsOYDj_V-94" vertex="1">
          <mxGeometry x="590" y="30" width="60" height="20" as="geometry" />
        </mxCell>
        <mxCell id="jd9A4PB5AfPvnsOYDj_V-68" value="&lt;font style=&quot;font-size: 10px;&quot;&gt;NODE:&lt;/font&gt;" style="text;html=1;strokeColor=none;fillColor=none;align=center;verticalAlign=middle;whiteSpace=wrap;rounded=0;" parent="jd9A4PB5AfPvnsOYDj_V-94" vertex="1">
          <mxGeometry y="10" width="40" height="10" as="geometry" />
        </mxCell>
        <mxCell id="jd9A4PB5AfPvnsOYDj_V-69" value="&lt;font style=&quot;font-size: 10px;&quot;&gt;TITLE:&lt;/font&gt;" style="text;html=1;strokeColor=none;fillColor=none;align=center;verticalAlign=middle;whiteSpace=wrap;rounded=0;" parent="jd9A4PB5AfPvnsOYDj_V-94" vertex="1">
          <mxGeometry x="124" y="5" width="40" height="20" as="geometry" />
        </mxCell>
        <mxCell id="jd9A4PB5AfPvnsOYDj_V-70" value="&lt;font style=&quot;font-size: 10px;&quot;&gt;NUMBER:&lt;/font&gt;" style="text;html=1;strokeColor=none;fillColor=none;align=center;verticalAlign=middle;whiteSpace=wrap;rounded=0;" parent="jd9A4PB5AfPvnsOYDj_V-94" vertex="1">
          <mxGeometry x="480" width="50" height="30" as="geometry" />
        </mxCell>
        <mxCell id="jd9A4PB5AfPvnsOYDj_V-164" value="Менеджер проекту" style="text;html=1;strokeColor=none;fillColor=none;align=left;verticalAlign=middle;whiteSpace=wrap;rounded=0;fontSize=8;" parent="jd9A4PB5AfPvnsOYDj_V-94" vertex="1">
          <mxGeometry x="585" y="-9.839999999999918" width="41.53" height="19.84" as="geometry" />
        </mxCell>
        <mxCell id="jd9A4PB5AfPvnsOYDj_V-163" value="Інженер-програміст" style="text;html=1;strokeColor=none;fillColor=none;align=right;verticalAlign=middle;whiteSpace=wrap;rounded=0;fontSize=8;" parent="jd9A4PB5AfPvnsOYDj_V-94" vertex="1">
          <mxGeometry x="505" y="-9.839999999999918" width="50" height="20.28" as="geometry" />
        </mxCell>
        <mxCell id="jd9A4PB5AfPvnsOYDj_V-89" value="" style="group;fontSize=10;verticalAlign=middle;horizontal=1;fontFamily=Times New Roman;" parent="1" connectable="0" vertex="1">
          <mxGeometry x="149" y="659.86" width="83.85471480336992" height="50.29411764705885" as="geometry" />
        </mxCell>
        <mxCell id="jd9A4PB5AfPvnsOYDj_V-76" value="Визначення вимог" style="rounded=0;whiteSpace=wrap;html=1;fontSize=10;verticalAlign=middle;horizontal=1;fontFamily=Times New Roman;" parent="jd9A4PB5AfPvnsOYDj_V-89" vertex="1">
          <mxGeometry width="83.85471480336992" height="50.29411764705885" as="geometry" />
        </mxCell>
        <mxCell id="jd9A4PB5AfPvnsOYDj_V-78" value="Ор." style="text;html=1;strokeColor=none;fillColor=none;align=center;verticalAlign=middle;whiteSpace=wrap;rounded=0;fontSize=10;horizontal=1;fontFamily=Times New Roman;" parent="jd9A4PB5AfPvnsOYDj_V-89" vertex="1">
          <mxGeometry y="33.529411764705905" width="20.12513155280878" height="16.764705882352953" as="geometry" />
        </mxCell>
        <mxCell id="jd9A4PB5AfPvnsOYDj_V-79" value="1" style="text;html=1;strokeColor=none;fillColor=none;align=center;verticalAlign=middle;whiteSpace=wrap;rounded=0;fontSize=10;horizontal=1;fontFamily=Times New Roman;" parent="jd9A4PB5AfPvnsOYDj_V-89" vertex="1">
          <mxGeometry x="73.12131130853858" y="33.529411764705905" width="10.06256577640439" height="16.764705882352953" as="geometry" />
        </mxCell>
        <mxCell id="jd9A4PB5AfPvnsOYDj_V-90" value="" style="group;fontSize=10;verticalAlign=middle;horizontal=1;fontFamily=Times New Roman;" parent="1" connectable="0" vertex="1">
          <mxGeometry x="246.14309318941832" y="718.5364705882354" width="83.85471480336992" height="50.29411764705885" as="geometry" />
        </mxCell>
        <mxCell id="jd9A4PB5AfPvnsOYDj_V-71" value="Проектування" style="rounded=0;whiteSpace=wrap;html=1;fontSize=10;verticalAlign=middle;horizontal=1;fontFamily=Times New Roman;" parent="jd9A4PB5AfPvnsOYDj_V-90" vertex="1">
          <mxGeometry width="83.85471480336992" height="50.29411764705885" as="geometry" />
        </mxCell>
        <mxCell id="jd9A4PB5AfPvnsOYDj_V-80" value="Ор." style="text;html=1;strokeColor=none;fillColor=none;align=center;verticalAlign=middle;whiteSpace=wrap;rounded=0;fontSize=10;horizontal=1;fontFamily=Times New Roman;" parent="jd9A4PB5AfPvnsOYDj_V-90" vertex="1">
          <mxGeometry y="33.529411764705905" width="20.12513155280878" height="16.764705882352953" as="geometry" />
        </mxCell>
        <mxCell id="jd9A4PB5AfPvnsOYDj_V-81" value="2" style="text;html=1;strokeColor=none;fillColor=none;align=center;verticalAlign=middle;whiteSpace=wrap;rounded=0;fontSize=10;horizontal=1;fontFamily=Times New Roman;" parent="jd9A4PB5AfPvnsOYDj_V-90" vertex="1">
          <mxGeometry x="73.12131130853858" y="33.529411764705905" width="10.06256577640439" height="16.764705882352953" as="geometry" />
        </mxCell>
        <mxCell id="jd9A4PB5AfPvnsOYDj_V-91" value="" style="group;fontSize=10;verticalAlign=middle;horizontal=1;fontFamily=Times New Roman;" parent="1" connectable="0" vertex="1">
          <mxGeometry x="342.5158504896583" y="777.2129411764706" width="109.3465481035944" height="50.29411764705885" as="geometry" />
        </mxCell>
        <mxCell id="jd9A4PB5AfPvnsOYDj_V-72" value="Реалізація" style="rounded=0;whiteSpace=wrap;html=1;fontSize=10;verticalAlign=middle;horizontal=1;fontFamily=Times New Roman;" parent="jd9A4PB5AfPvnsOYDj_V-91" vertex="1">
          <mxGeometry width="109.3465481035944" height="50.29411764705885" as="geometry" />
        </mxCell>
        <mxCell id="jd9A4PB5AfPvnsOYDj_V-82" value="Ор." style="text;html=1;strokeColor=none;fillColor=none;align=center;verticalAlign=middle;whiteSpace=wrap;rounded=0;fontSize=10;horizontal=1;fontFamily=Times New Roman;" parent="jd9A4PB5AfPvnsOYDj_V-91" vertex="1">
          <mxGeometry y="33.529411764705905" width="20.12513155280879" height="16.764705882352953" as="geometry" />
        </mxCell>
        <mxCell id="jd9A4PB5AfPvnsOYDj_V-83" value="3" style="text;html=1;strokeColor=none;fillColor=none;align=center;verticalAlign=middle;whiteSpace=wrap;rounded=0;fontSize=10;horizontal=1;fontFamily=Times New Roman;" parent="jd9A4PB5AfPvnsOYDj_V-91" vertex="1">
          <mxGeometry x="99.28398232719003" y="33.529411764705905" width="10.062565776404394" height="16.764705882352953" as="geometry" />
        </mxCell>
        <mxCell id="jd9A4PB5AfPvnsOYDj_V-92" value="" style="group;fontSize=10;verticalAlign=middle;horizontal=1;fontFamily=Times New Roman;" parent="1" connectable="0" vertex="1">
          <mxGeometry x="466.4505768471587" y="839.859411764706" width="114.04241213258314" height="50.29411764705885" as="geometry" />
        </mxCell>
        <mxCell id="jd9A4PB5AfPvnsOYDj_V-74" value="Тестування" style="rounded=0;whiteSpace=wrap;html=1;fontSize=10;verticalAlign=middle;horizontal=1;fontFamily=Times New Roman;" parent="jd9A4PB5AfPvnsOYDj_V-92" vertex="1">
          <mxGeometry width="114.04241213258314" height="50.29411764705885" as="geometry" />
        </mxCell>
        <mxCell id="jd9A4PB5AfPvnsOYDj_V-87" value="Ор." style="text;html=1;strokeColor=none;fillColor=none;align=center;verticalAlign=middle;whiteSpace=wrap;rounded=0;fontSize=10;horizontal=1;fontFamily=Times New Roman;" parent="jd9A4PB5AfPvnsOYDj_V-92" vertex="1">
          <mxGeometry y="33.529411764705905" width="20.12513155280878" height="16.764705882352953" as="geometry" />
        </mxCell>
        <mxCell id="jd9A4PB5AfPvnsOYDj_V-88" value="4" style="text;html=1;strokeColor=none;fillColor=none;align=center;verticalAlign=middle;whiteSpace=wrap;rounded=0;fontSize=10;horizontal=1;fontFamily=Times New Roman;" parent="jd9A4PB5AfPvnsOYDj_V-92" vertex="1">
          <mxGeometry x="103.97984635617874" y="33.529411764705905" width="10.06256577640439" height="16.764705882352953" as="geometry" />
        </mxCell>
        <mxCell id="jd9A4PB5AfPvnsOYDj_V-93" value="" style="group;fontSize=10;verticalAlign=middle;horizontal=1;fontFamily=Times New Roman;" parent="1" connectable="0" vertex="1">
          <mxGeometry x="596.003405963674" y="909.8600000000001" width="109.59659403632597" height="50.29000000000001" as="geometry" />
        </mxCell>
        <mxCell id="jd9A4PB5AfPvnsOYDj_V-77" value="Впровадження" style="rounded=0;whiteSpace=wrap;html=1;align=center;fontSize=10;verticalAlign=middle;horizontal=1;fontFamily=Times New Roman;" parent="jd9A4PB5AfPvnsOYDj_V-93" vertex="1">
          <mxGeometry width="109.59659403632597" height="50.29000000000001" as="geometry" />
        </mxCell>
        <mxCell id="jd9A4PB5AfPvnsOYDj_V-85" value="Ор." style="text;html=1;strokeColor=none;fillColor=none;align=center;verticalAlign=middle;whiteSpace=wrap;rounded=0;fontSize=10;horizontal=1;fontFamily=Times New Roman;" parent="jd9A4PB5AfPvnsOYDj_V-93" vertex="1">
          <mxGeometry x="0.8767727522906077" y="33.526666666666685" width="26.30318256871823" height="16.763333333333343" as="geometry" />
        </mxCell>
        <mxCell id="jd9A4PB5AfPvnsOYDj_V-86" value="5" style="text;html=1;strokeColor=none;fillColor=none;align=center;verticalAlign=middle;whiteSpace=wrap;rounded=0;fontSize=10;horizontal=1;fontFamily=Times New Roman;" parent="jd9A4PB5AfPvnsOYDj_V-93" vertex="1">
          <mxGeometry x="96.44500275196687" y="33.526666666666685" width="13.151591284359116" height="16.763333333333343" as="geometry" />
        </mxCell>
        <mxCell id="jd9A4PB5AfPvnsOYDj_V-103" style="edgeStyle=orthogonalEdgeStyle;rounded=0;orthogonalLoop=1;jettySize=auto;html=1;exitX=1;exitY=0.5;exitDx=0;exitDy=0;entryX=0;entryY=0.25;entryDx=0;entryDy=0;" parent="1" source="jd9A4PB5AfPvnsOYDj_V-76" target="jd9A4PB5AfPvnsOYDj_V-71" edge="1">
          <mxGeometry relative="1" as="geometry">
            <Array as="points">
              <mxPoint x="237" y="685" />
              <mxPoint x="237" y="731" />
            </Array>
          </mxGeometry>
        </mxCell>
        <mxCell id="jd9A4PB5AfPvnsOYDj_V-104" style="edgeStyle=orthogonalEdgeStyle;rounded=0;orthogonalLoop=1;jettySize=auto;html=1;exitX=1;exitY=0.5;exitDx=0;exitDy=0;entryX=0;entryY=0.5;entryDx=0;entryDy=0;" parent="1" source="jd9A4PB5AfPvnsOYDj_V-71" target="jd9A4PB5AfPvnsOYDj_V-72" edge="1">
          <mxGeometry relative="1" as="geometry">
            <Array as="points">
              <mxPoint x="332.604752808625" y="743.86" />
              <mxPoint x="332.604752808625" y="801.86" />
            </Array>
          </mxGeometry>
        </mxCell>
        <mxCell id="jd9A4PB5AfPvnsOYDj_V-106" style="edgeStyle=orthogonalEdgeStyle;rounded=0;orthogonalLoop=1;jettySize=auto;html=1;exitX=1;exitY=0.5;exitDx=0;exitDy=0;entryX=0;entryY=0.5;entryDx=0;entryDy=0;" parent="1" source="jd9A4PB5AfPvnsOYDj_V-72" target="jd9A4PB5AfPvnsOYDj_V-74" edge="1">
          <mxGeometry relative="1" as="geometry">
            <Array as="points">
              <mxPoint x="452" y="800" />
              <mxPoint x="457" y="800" />
              <mxPoint x="457" y="865" />
            </Array>
          </mxGeometry>
        </mxCell>
        <mxCell id="jd9A4PB5AfPvnsOYDj_V-107" style="edgeStyle=orthogonalEdgeStyle;rounded=0;orthogonalLoop=1;jettySize=auto;html=1;exitX=1;exitY=0.25;exitDx=0;exitDy=0;entryX=0;entryY=0.75;entryDx=0;entryDy=0;" parent="1" source="jd9A4PB5AfPvnsOYDj_V-74" target="jd9A4PB5AfPvnsOYDj_V-77" edge="1">
          <mxGeometry relative="1" as="geometry">
            <Array as="points">
              <mxPoint x="580" y="850" />
              <mxPoint x="585" y="850" />
              <mxPoint x="585" y="948" />
              <mxPoint x="596" y="948" />
            </Array>
          </mxGeometry>
        </mxCell>
        <mxCell id="jd9A4PB5AfPvnsOYDj_V-108" style="edgeStyle=orthogonalEdgeStyle;rounded=0;orthogonalLoop=1;jettySize=auto;html=1;exitX=1;exitY=0.25;exitDx=0;exitDy=0;" parent="1" source="jd9A4PB5AfPvnsOYDj_V-77" edge="1">
          <mxGeometry relative="1" as="geometry">
            <mxPoint x="740" y="922" as="targetPoint" />
          </mxGeometry>
        </mxCell>
        <mxCell id="jd9A4PB5AfPvnsOYDj_V-116" style="edgeStyle=orthogonalEdgeStyle;rounded=0;orthogonalLoop=1;jettySize=auto;html=1;entryX=0;entryY=0.25;entryDx=0;entryDy=0;exitX=1;exitY=0.25;exitDx=0;exitDy=0;" parent="1" source="jd9A4PB5AfPvnsOYDj_V-88" edge="1">
          <mxGeometry relative="1" as="geometry">
            <mxPoint x="580.4829889797419" y="877.58" as="sourcePoint" />
            <mxPoint x="342.5058504896583" y="814.9335294117648" as="targetPoint" />
            <Array as="points">
              <mxPoint x="583" y="878" />
              <mxPoint x="583" y="900" />
              <mxPoint x="333" y="900" />
              <mxPoint x="333" y="815" />
            </Array>
          </mxGeometry>
        </mxCell>
        <mxCell id="jd9A4PB5AfPvnsOYDj_V-126" value="" style="endArrow=classic;html=1;rounded=0;entryX=0;entryY=0.5;entryDx=0;entryDy=0;" parent="1" target="jd9A4PB5AfPvnsOYDj_V-76" edge="1">
          <mxGeometry width="50" height="50" relative="1" as="geometry">
            <mxPoint x="100" y="685" as="sourcePoint" />
            <mxPoint x="150" y="660" as="targetPoint" />
          </mxGeometry>
        </mxCell>
        <mxCell id="jd9A4PB5AfPvnsOYDj_V-129" style="edgeStyle=orthogonalEdgeStyle;rounded=0;orthogonalLoop=1;jettySize=auto;html=1;exitX=0.5;exitY=0;exitDx=0;exitDy=0;entryX=0.25;entryY=1;entryDx=0;entryDy=0;" parent="1" source="jd9A4PB5AfPvnsOYDj_V-49" target="jd9A4PB5AfPvnsOYDj_V-76" edge="1">
          <mxGeometry relative="1" as="geometry">
            <Array as="points">
              <mxPoint x="170" y="995" />
            </Array>
          </mxGeometry>
        </mxCell>
        <mxCell id="jd9A4PB5AfPvnsOYDj_V-131" style="edgeStyle=orthogonalEdgeStyle;rounded=0;orthogonalLoop=1;jettySize=auto;html=1;exitX=0.25;exitY=0;exitDx=0;exitDy=0;entryX=0.5;entryY=1;entryDx=0;entryDy=0;" parent="1" source="jd9A4PB5AfPvnsOYDj_V-50" target="jd9A4PB5AfPvnsOYDj_V-71" edge="1">
          <mxGeometry relative="1" as="geometry">
            <Array as="points">
              <mxPoint x="288" y="995" />
            </Array>
          </mxGeometry>
        </mxCell>
        <mxCell id="jd9A4PB5AfPvnsOYDj_V-132" style="edgeStyle=orthogonalEdgeStyle;rounded=0;orthogonalLoop=1;jettySize=auto;html=1;exitX=0.25;exitY=0;exitDx=0;exitDy=0;entryX=0.75;entryY=1;entryDx=0;entryDy=0;" parent="1" source="jd9A4PB5AfPvnsOYDj_V-50" target="jd9A4PB5AfPvnsOYDj_V-71" edge="1">
          <mxGeometry relative="1" as="geometry">
            <Array as="points">
              <mxPoint x="309" y="995" />
            </Array>
          </mxGeometry>
        </mxCell>
        <mxCell id="jd9A4PB5AfPvnsOYDj_V-133" style="edgeStyle=orthogonalEdgeStyle;rounded=0;orthogonalLoop=1;jettySize=auto;html=1;exitX=0.5;exitY=1;exitDx=0;exitDy=0;entryX=0.75;entryY=0;entryDx=0;entryDy=0;" parent="1" source="jd9A4PB5AfPvnsOYDj_V-45" target="jd9A4PB5AfPvnsOYDj_V-71" edge="1">
          <mxGeometry relative="1" as="geometry">
            <Array as="points">
              <mxPoint x="309" y="635" />
            </Array>
          </mxGeometry>
        </mxCell>
        <mxCell id="jd9A4PB5AfPvnsOYDj_V-134" style="edgeStyle=orthogonalEdgeStyle;rounded=0;orthogonalLoop=1;jettySize=auto;html=1;exitX=1;exitY=1;exitDx=0;exitDy=0;entryX=0.75;entryY=0;entryDx=0;entryDy=0;" parent="1" source="jd9A4PB5AfPvnsOYDj_V-45" target="jd9A4PB5AfPvnsOYDj_V-72" edge="1">
          <mxGeometry relative="1" as="geometry">
            <Array as="points">
              <mxPoint x="425" y="635" />
              <mxPoint x="425" y="706" />
            </Array>
          </mxGeometry>
        </mxCell>
        <mxCell id="jd9A4PB5AfPvnsOYDj_V-136" style="edgeStyle=orthogonalEdgeStyle;rounded=0;orthogonalLoop=1;jettySize=auto;html=1;exitX=0.75;exitY=1;exitDx=0;exitDy=0;entryX=0.25;entryY=0;entryDx=0;entryDy=0;" parent="1" source="jd9A4PB5AfPvnsOYDj_V-45" target="jd9A4PB5AfPvnsOYDj_V-72" edge="1">
          <mxGeometry relative="1" as="geometry">
            <Array as="points">
              <mxPoint x="370" y="635" />
            </Array>
          </mxGeometry>
        </mxCell>
        <mxCell id="jd9A4PB5AfPvnsOYDj_V-138" style="edgeStyle=orthogonalEdgeStyle;rounded=0;orthogonalLoop=1;jettySize=auto;html=1;exitX=0.75;exitY=1;exitDx=0;exitDy=0;entryX=0.5;entryY=0;entryDx=0;entryDy=0;" parent="1" source="jd9A4PB5AfPvnsOYDj_V-56" target="jd9A4PB5AfPvnsOYDj_V-74" edge="1">
          <mxGeometry relative="1" as="geometry">
            <Array as="points">
              <mxPoint x="523" y="635" />
              <mxPoint x="523" y="737" />
            </Array>
          </mxGeometry>
        </mxCell>
        <mxCell id="jd9A4PB5AfPvnsOYDj_V-140" style="edgeStyle=orthogonalEdgeStyle;rounded=0;orthogonalLoop=1;jettySize=auto;html=1;exitX=0.25;exitY=1;exitDx=0;exitDy=0;entryX=0.5;entryY=0;entryDx=0;entryDy=0;" parent="1" source="jd9A4PB5AfPvnsOYDj_V-45" target="jd9A4PB5AfPvnsOYDj_V-76" edge="1">
          <mxGeometry relative="1" as="geometry" />
        </mxCell>
        <mxCell id="jd9A4PB5AfPvnsOYDj_V-141" style="edgeStyle=orthogonalEdgeStyle;rounded=0;orthogonalLoop=1;jettySize=auto;html=1;exitX=0.5;exitY=0;exitDx=0;exitDy=0;entryX=0.5;entryY=1;entryDx=0;entryDy=0;" parent="1" source="jd9A4PB5AfPvnsOYDj_V-50" target="jd9A4PB5AfPvnsOYDj_V-72" edge="1">
          <mxGeometry relative="1" as="geometry" />
        </mxCell>
        <mxCell id="jd9A4PB5AfPvnsOYDj_V-142" style="edgeStyle=orthogonalEdgeStyle;rounded=0;orthogonalLoop=1;jettySize=auto;html=1;exitX=0.5;exitY=0;exitDx=0;exitDy=0;entryX=0.75;entryY=1;entryDx=0;entryDy=0;" parent="1" source="jd9A4PB5AfPvnsOYDj_V-50" target="jd9A4PB5AfPvnsOYDj_V-72" edge="1">
          <mxGeometry relative="1" as="geometry">
            <Array as="points">
              <mxPoint x="425" y="995" />
              <mxPoint x="425" y="911" />
            </Array>
          </mxGeometry>
        </mxCell>
        <mxCell id="jd9A4PB5AfPvnsOYDj_V-143" style="edgeStyle=orthogonalEdgeStyle;rounded=0;orthogonalLoop=1;jettySize=auto;html=1;exitX=0.75;exitY=0;exitDx=0;exitDy=0;entryX=0.25;entryY=1;entryDx=0;entryDy=0;" parent="1" source="jd9A4PB5AfPvnsOYDj_V-50" target="jd9A4PB5AfPvnsOYDj_V-74" edge="1">
          <mxGeometry relative="1" as="geometry">
            <Array as="points">
              <mxPoint x="495" y="995" />
            </Array>
          </mxGeometry>
        </mxCell>
        <mxCell id="jd9A4PB5AfPvnsOYDj_V-145" style="edgeStyle=orthogonalEdgeStyle;rounded=0;orthogonalLoop=1;jettySize=auto;html=1;exitX=0.5;exitY=0;exitDx=0;exitDy=0;entryX=0.5;entryY=1;entryDx=0;entryDy=0;" parent="1" source="jd9A4PB5AfPvnsOYDj_V-51" target="jd9A4PB5AfPvnsOYDj_V-77" edge="1">
          <mxGeometry relative="1" as="geometry" />
        </mxCell>
        <mxCell id="jd9A4PB5AfPvnsOYDj_V-146" style="edgeStyle=orthogonalEdgeStyle;rounded=0;orthogonalLoop=1;jettySize=auto;html=1;exitX=0.5;exitY=0;exitDx=0;exitDy=0;entryX=0.75;entryY=1;entryDx=0;entryDy=0;" parent="1" source="jd9A4PB5AfPvnsOYDj_V-51" target="jd9A4PB5AfPvnsOYDj_V-77" edge="1">
          <mxGeometry relative="1" as="geometry" />
        </mxCell>
        <mxCell id="jd9A4PB5AfPvnsOYDj_V-149" value="Аналітик" style="text;html=1;strokeColor=none;fillColor=none;align=left;verticalAlign=middle;whiteSpace=wrap;rounded=0;fontSize=8;" parent="1" vertex="1">
          <mxGeometry x="170" y="900" width="70" height="40.14" as="geometry" />
        </mxCell>
        <mxCell id="jd9A4PB5AfPvnsOYDj_V-152" value="Команда проектування" style="text;html=1;strokeColor=none;fillColor=none;align=left;verticalAlign=middle;whiteSpace=wrap;rounded=0;fontSize=8;" parent="1" vertex="1">
          <mxGeometry x="310" y="940.14" width="70" height="40.14" as="geometry" />
        </mxCell>
        <mxCell id="jd9A4PB5AfPvnsOYDj_V-153" value="Інженер-програміст" style="text;html=1;strokeColor=none;fillColor=none;align=right;verticalAlign=middle;whiteSpace=wrap;rounded=0;fontSize=8;" parent="1" vertex="1">
          <mxGeometry x="234" y="895.14" width="50" height="49.85" as="geometry" />
        </mxCell>
        <mxCell id="jd9A4PB5AfPvnsOYDj_V-155" value="Менеджер проекту" style="text;html=1;strokeColor=none;fillColor=none;align=left;verticalAlign=middle;whiteSpace=wrap;rounded=0;fontSize=8;" parent="1" vertex="1">
          <mxGeometry x="430" y="930" width="70" height="40.14" as="geometry" />
        </mxCell>
        <mxCell id="jd9A4PB5AfPvnsOYDj_V-157" value="Інженер-програміст" style="text;html=1;strokeColor=none;fillColor=none;align=right;verticalAlign=middle;whiteSpace=wrap;rounded=0;fontSize=8;" parent="1" vertex="1">
          <mxGeometry x="330" y="914.94" width="70" height="35.06" as="geometry" />
        </mxCell>
        <mxCell id="jd9A4PB5AfPvnsOYDj_V-162" value="Тестувальник програмного забезпечення" style="text;html=1;strokeColor=none;fillColor=none;align=left;verticalAlign=middle;whiteSpace=wrap;rounded=0;fontSize=8;" parent="1" vertex="1">
          <mxGeometry x="498.47" y="930" width="41.53" height="19.84" as="geometry" />
        </mxCell>
        <mxCell id="jd9A4PB5AfPvnsOYDj_V-169" value="Система керування версіями" style="text;html=1;strokeColor=none;fillColor=none;align=left;verticalAlign=middle;whiteSpace=wrap;rounded=0;fontSize=8;" parent="1" vertex="1">
          <mxGeometry x="370" y="640" width="70" height="40.14" as="geometry" />
        </mxCell>
        <mxCell id="jd9A4PB5AfPvnsOYDj_V-171" value="Система керування проектами" style="text;html=1;strokeColor=none;fillColor=none;align=left;verticalAlign=middle;whiteSpace=wrap;rounded=0;fontSize=8;" parent="1" vertex="1">
          <mxGeometry x="428.47" y="640" width="70" height="40.14" as="geometry" />
        </mxCell>
        <mxCell id="jd9A4PB5AfPvnsOYDj_V-172" style="edgeStyle=orthogonalEdgeStyle;rounded=0;orthogonalLoop=1;jettySize=auto;html=1;exitX=0.5;exitY=1;exitDx=0;exitDy=0;entryX=0.25;entryY=0;entryDx=0;entryDy=0;" parent="1" source="jd9A4PB5AfPvnsOYDj_V-45" target="jd9A4PB5AfPvnsOYDj_V-71" edge="1">
          <mxGeometry relative="1" as="geometry">
            <Array as="points">
              <mxPoint x="267" y="635" />
            </Array>
          </mxGeometry>
        </mxCell>
        <mxCell id="jd9A4PB5AfPvnsOYDj_V-183" style="edgeStyle=isometricEdgeStyle;rounded=0;orthogonalLoop=1;jettySize=auto;html=1;exitX=0;exitY=0.5;exitDx=0;exitDy=0;shape=link;width=-0.30303030303030276;" parent="1" source="jd9A4PB5AfPvnsOYDj_V-184" edge="1">
          <mxGeometry relative="1" as="geometry">
            <mxPoint x="330" y="758.6800000000001" as="targetPoint" />
          </mxGeometry>
        </mxCell>
        <mxCell id="jd9A4PB5AfPvnsOYDj_V-184" value="Проект" style="text;html=1;strokeColor=none;fillColor=none;align=left;verticalAlign=middle;whiteSpace=wrap;rounded=0;fontSize=8;" parent="1" vertex="1">
          <mxGeometry x="360" y="738.83" width="60" height="30" as="geometry" />
        </mxCell>
        <mxCell id="jd9A4PB5AfPvnsOYDj_V-187" style="edgeStyle=isometricEdgeStyle;rounded=0;orthogonalLoop=1;jettySize=auto;html=1;exitX=0;exitY=0.5;exitDx=0;exitDy=0;shape=link;width=-0.2857142857142865;" parent="1" source="jd9A4PB5AfPvnsOYDj_V-188" edge="1">
          <mxGeometry relative="1" as="geometry">
            <mxPoint x="458" y="807.21" as="targetPoint" />
          </mxGeometry>
        </mxCell>
        <mxCell id="jd9A4PB5AfPvnsOYDj_V-188" value="Готовий код програми" style="text;html=1;strokeColor=none;fillColor=none;align=left;verticalAlign=middle;whiteSpace=wrap;rounded=0;fontSize=8;" parent="1" vertex="1">
          <mxGeometry x="489.24" y="795" width="60" height="30" as="geometry" />
        </mxCell>
        <mxCell id="jd9A4PB5AfPvnsOYDj_V-192" style="edgeStyle=isometricEdgeStyle;rounded=0;orthogonalLoop=1;jettySize=auto;html=1;exitX=0;exitY=0.5;exitDx=0;exitDy=0;shape=link;width=0;" parent="1" source="jd9A4PB5AfPvnsOYDj_V-193" edge="1">
          <mxGeometry relative="1" as="geometry">
            <mxPoint x="580" y="850" as="targetPoint" />
          </mxGeometry>
        </mxCell>
        <mxCell id="jd9A4PB5AfPvnsOYDj_V-193" value="Готове програмне забезпечення" style="text;html=1;strokeColor=none;fillColor=none;align=left;verticalAlign=middle;whiteSpace=wrap;rounded=0;fontSize=8;" parent="1" vertex="1">
          <mxGeometry x="610.49" y="809.86" width="60" height="30" as="geometry" />
        </mxCell>
        <mxCell id="jd9A4PB5AfPvnsOYDj_V-194" style="edgeStyle=isometricEdgeStyle;rounded=0;orthogonalLoop=1;jettySize=auto;html=1;exitX=0;exitY=0.5;exitDx=0;exitDy=0;shape=link;width=0.23255813953488413;" parent="1" source="jd9A4PB5AfPvnsOYDj_V-195" edge="1">
          <mxGeometry relative="1" as="geometry">
            <mxPoint x="580.49" y="880" as="targetPoint" />
          </mxGeometry>
        </mxCell>
        <mxCell id="jd9A4PB5AfPvnsOYDj_V-195" value="Помилки у коді" style="text;html=1;strokeColor=none;fillColor=none;align=left;verticalAlign=middle;whiteSpace=wrap;rounded=0;fontSize=8;" parent="1" vertex="1">
          <mxGeometry x="670.49" y="820.01" width="90" height="30" as="geometry" />
        </mxCell>
        <mxCell id="jd9A4PB5AfPvnsOYDj_V-196" style="edgeStyle=orthogonalEdgeStyle;rounded=0;orthogonalLoop=1;jettySize=auto;html=1;exitX=0.75;exitY=1;exitDx=0;exitDy=0;entryX=0.75;entryY=0;entryDx=0;entryDy=0;" parent="1" source="jd9A4PB5AfPvnsOYDj_V-56" target="jd9A4PB5AfPvnsOYDj_V-74" edge="1">
          <mxGeometry relative="1" as="geometry">
            <Array as="points">
              <mxPoint x="552" y="635" />
            </Array>
          </mxGeometry>
        </mxCell>
        <mxCell id="jd9A4PB5AfPvnsOYDj_V-197" value="Система керування вимогами" style="text;html=1;strokeColor=none;fillColor=none;align=left;verticalAlign=middle;whiteSpace=wrap;rounded=0;fontSize=8;" parent="1" vertex="1">
          <mxGeometry x="553" y="640" width="60" height="40.14" as="geometry" />
        </mxCell>
        <mxCell id="jd9A4PB5AfPvnsOYDj_V-201" value="Завершення проекту або циклу розробки" style="text;html=1;strokeColor=none;fillColor=none;align=right;verticalAlign=middle;whiteSpace=wrap;rounded=0;fontSize=8;" parent="1" vertex="1">
          <mxGeometry x="670.49" y="869.86" width="69.51" height="40" as="geometry" />
        </mxCell>
        <mxCell id="jd9A4PB5AfPvnsOYDj_V-166" value="Вимоги до програмного забезпечення" style="text;html=1;strokeColor=none;fillColor=none;align=right;verticalAlign=middle;whiteSpace=wrap;rounded=0;fontSize=8;" parent="1" vertex="1">
          <mxGeometry x="100" y="630" width="91" height="40.14" as="geometry" />
        </mxCell>
        <mxCell id="jd9A4PB5AfPvnsOYDj_V-173" value="&lt;font style=&quot;font-size: 8px;&quot;&gt;Методики проектування&lt;/font&gt;" style="text;html=1;strokeColor=none;fillColor=none;align=right;verticalAlign=middle;whiteSpace=wrap;rounded=0;fontSize=7;" parent="1" vertex="1">
          <mxGeometry x="209" y="617.57" width="57" height="65" as="geometry" />
        </mxCell>
        <mxCell id="jd9A4PB5AfPvnsOYDj_V-174" value="Система керування тестовими сценаріями" style="text;html=1;strokeColor=none;fillColor=none;align=right;verticalAlign=middle;whiteSpace=wrap;rounded=0;fontSize=8;" parent="1" vertex="1">
          <mxGeometry x="459.5" y="642.43" width="61" height="40.14" as="geometry" />
        </mxCell>
        <mxCell id="jd9A4PB5AfPvnsOYDj_V-177" value="Замовлення&amp;nbsp; програмного забезпечення" style="text;html=1;strokeColor=none;fillColor=none;align=left;verticalAlign=middle;whiteSpace=wrap;rounded=0;fontSize=8;" parent="1" vertex="1">
          <mxGeometry x="99" y="682.57" width="45" height="40" as="geometry" />
        </mxCell>
        <mxCell id="jd9A4PB5AfPvnsOYDj_V-178" style="edgeStyle=isometricEdgeStyle;rounded=0;orthogonalLoop=1;jettySize=auto;html=1;exitX=0;exitY=0.5;exitDx=0;exitDy=0;shape=link;width=-0.786516853932584;" parent="1" source="jd9A4PB5AfPvnsOYDj_V-179" edge="1">
          <mxGeometry relative="1" as="geometry">
            <mxPoint x="240" y="689.99" as="targetPoint" />
          </mxGeometry>
        </mxCell>
        <mxCell id="iZYhkjXPLXinA8Z1_ec2-2" value="" style="edgeStyle=orthogonalEdgeStyle;rounded=0;orthogonalLoop=1;jettySize=auto;html=1;" parent="1" source="jd9A4PB5AfPvnsOYDj_V-179" target="jd9A4PB5AfPvnsOYDj_V-81" edge="1">
          <mxGeometry relative="1" as="geometry" />
        </mxCell>
        <mxCell id="jd9A4PB5AfPvnsOYDj_V-179" value="Вимоги до проектування" style="text;html=1;strokeColor=none;fillColor=none;align=left;verticalAlign=middle;whiteSpace=wrap;rounded=0;fontSize=8;" parent="1" vertex="1">
          <mxGeometry x="254" y="670.14" width="60" height="30" as="geometry" />
        </mxCell>
        <mxCell id="jd9A4PB5AfPvnsOYDj_V-207" value="" style="group" parent="1" connectable="0" vertex="1">
          <mxGeometry x="99" y="585" width="646" height="95.14" as="geometry" />
        </mxCell>
        <mxCell id="jd9A4PB5AfPvnsOYDj_V-42" value="" style="rounded=0;whiteSpace=wrap;html=1;" parent="jd9A4PB5AfPvnsOYDj_V-207" vertex="1">
          <mxGeometry width="646" height="50" as="geometry" />
        </mxCell>
        <mxCell id="jd9A4PB5AfPvnsOYDj_V-44" value="&lt;div style=&quot;&quot;&gt;&lt;span style=&quot;font-size: 9px; background-color: initial;&quot;&gt;USED AT:&lt;/span&gt;&lt;/div&gt;&lt;font style=&quot;&quot;&gt;&lt;div style=&quot;&quot;&gt;&lt;font size=&quot;1&quot;&gt;&lt;br&gt;&lt;/font&gt;&lt;/div&gt;&lt;/font&gt;&lt;div style=&quot;&quot;&gt;&lt;br&gt;&lt;/div&gt;" style="rounded=0;whiteSpace=wrap;html=1;align=left;" parent="jd9A4PB5AfPvnsOYDj_V-207" vertex="1">
          <mxGeometry width="56" height="50" as="geometry" />
        </mxCell>
        <mxCell id="jd9A4PB5AfPvnsOYDj_V-45" value="" style="rounded=0;whiteSpace=wrap;html=1;" parent="jd9A4PB5AfPvnsOYDj_V-207" vertex="1">
          <mxGeometry x="56" width="260" height="50" as="geometry" />
        </mxCell>
        <mxCell id="jd9A4PB5AfPvnsOYDj_V-46" value="" style="rounded=0;whiteSpace=wrap;html=1;" parent="jd9A4PB5AfPvnsOYDj_V-207" vertex="1">
          <mxGeometry x="316" width="20" height="50" as="geometry" />
        </mxCell>
        <mxCell id="jd9A4PB5AfPvnsOYDj_V-47" value="" style="rounded=0;whiteSpace=wrap;html=1;" parent="jd9A4PB5AfPvnsOYDj_V-207" vertex="1">
          <mxGeometry x="336" width="110" height="50" as="geometry" />
        </mxCell>
        <mxCell id="jd9A4PB5AfPvnsOYDj_V-48" value="" style="rounded=0;whiteSpace=wrap;html=1;" parent="jd9A4PB5AfPvnsOYDj_V-207" vertex="1">
          <mxGeometry x="446" width="110" height="50" as="geometry" />
        </mxCell>
        <mxCell id="jd9A4PB5AfPvnsOYDj_V-52" value="" style="rounded=0;whiteSpace=wrap;html=1;" parent="jd9A4PB5AfPvnsOYDj_V-207" vertex="1">
          <mxGeometry x="336" width="110" height="10" as="geometry" />
        </mxCell>
        <mxCell id="jd9A4PB5AfPvnsOYDj_V-53" value="" style="rounded=0;whiteSpace=wrap;html=1;" parent="jd9A4PB5AfPvnsOYDj_V-207" vertex="1">
          <mxGeometry x="336" y="10" width="110" height="10" as="geometry" />
        </mxCell>
        <mxCell id="jd9A4PB5AfPvnsOYDj_V-54" value="" style="rounded=0;whiteSpace=wrap;html=1;" parent="jd9A4PB5AfPvnsOYDj_V-207" vertex="1">
          <mxGeometry x="336" y="20" width="110" height="10" as="geometry" />
        </mxCell>
        <mxCell id="jd9A4PB5AfPvnsOYDj_V-55" value="" style="rounded=0;whiteSpace=wrap;html=1;" parent="jd9A4PB5AfPvnsOYDj_V-207" vertex="1">
          <mxGeometry x="336" y="30" width="110" height="10" as="geometry" />
        </mxCell>
        <mxCell id="jd9A4PB5AfPvnsOYDj_V-56" value="" style="rounded=0;whiteSpace=wrap;html=1;" parent="jd9A4PB5AfPvnsOYDj_V-207" vertex="1">
          <mxGeometry x="336" y="40" width="110" height="10" as="geometry" />
        </mxCell>
        <mxCell id="jd9A4PB5AfPvnsOYDj_V-57" value="" style="rounded=0;whiteSpace=wrap;html=1;" parent="jd9A4PB5AfPvnsOYDj_V-207" vertex="1">
          <mxGeometry x="446" width="110" height="10" as="geometry" />
        </mxCell>
        <mxCell id="jd9A4PB5AfPvnsOYDj_V-58" value="" style="rounded=0;whiteSpace=wrap;html=1;" parent="jd9A4PB5AfPvnsOYDj_V-207" vertex="1">
          <mxGeometry x="446" y="10" width="110" height="10" as="geometry" />
        </mxCell>
        <mxCell id="jd9A4PB5AfPvnsOYDj_V-59" value="" style="rounded=0;whiteSpace=wrap;html=1;" parent="jd9A4PB5AfPvnsOYDj_V-207" vertex="1">
          <mxGeometry x="446" y="20" width="110" height="10" as="geometry" />
        </mxCell>
        <mxCell id="jd9A4PB5AfPvnsOYDj_V-60" value="" style="rounded=0;whiteSpace=wrap;html=1;" parent="jd9A4PB5AfPvnsOYDj_V-207" vertex="1">
          <mxGeometry x="446" y="30" width="110" height="10" as="geometry" />
        </mxCell>
        <mxCell id="jd9A4PB5AfPvnsOYDj_V-61" value="" style="rounded=0;whiteSpace=wrap;html=1;" parent="jd9A4PB5AfPvnsOYDj_V-207" vertex="1">
          <mxGeometry x="446" y="40" width="110" height="10" as="geometry" />
        </mxCell>
        <mxCell id="jd9A4PB5AfPvnsOYDj_V-62" value="" style="rounded=0;whiteSpace=wrap;html=1;" parent="jd9A4PB5AfPvnsOYDj_V-207" vertex="1">
          <mxGeometry x="316" width="20" height="10" as="geometry" />
        </mxCell>
        <mxCell id="jd9A4PB5AfPvnsOYDj_V-63" value="" style="rounded=0;whiteSpace=wrap;html=1;" parent="jd9A4PB5AfPvnsOYDj_V-207" vertex="1">
          <mxGeometry x="316" y="10" width="20" height="10" as="geometry" />
        </mxCell>
        <mxCell id="jd9A4PB5AfPvnsOYDj_V-64" value="" style="rounded=0;whiteSpace=wrap;html=1;" parent="jd9A4PB5AfPvnsOYDj_V-207" vertex="1">
          <mxGeometry x="316" y="20" width="20" height="10" as="geometry" />
        </mxCell>
        <mxCell id="jd9A4PB5AfPvnsOYDj_V-65" value="" style="rounded=0;whiteSpace=wrap;html=1;" parent="jd9A4PB5AfPvnsOYDj_V-207" vertex="1">
          <mxGeometry x="316" y="30" width="20" height="10" as="geometry" />
        </mxCell>
        <mxCell id="jd9A4PB5AfPvnsOYDj_V-66" value="" style="rounded=0;whiteSpace=wrap;html=1;" parent="jd9A4PB5AfPvnsOYDj_V-207" vertex="1">
          <mxGeometry x="316" y="40" width="20" height="10" as="geometry" />
        </mxCell>
        <mxCell id="jd9A4PB5AfPvnsOYDj_V-168" value="Бюджети проектування" style="text;html=1;strokeColor=none;fillColor=none;align=left;verticalAlign=middle;whiteSpace=wrap;rounded=0;fontSize=8;" parent="jd9A4PB5AfPvnsOYDj_V-207" vertex="1">
          <mxGeometry x="211" y="50" width="70" height="40.14" as="geometry" />
        </mxCell>
        <mxCell id="iZYhkjXPLXinA8Z1_ec2-5" value="" style="endArrow=classic;html=1;rounded=0;entryX=0.5;entryY=0;entryDx=0;entryDy=0;exitX=0.945;exitY=0.922;exitDx=0;exitDy=0;exitPerimeter=0;" parent="jd9A4PB5AfPvnsOYDj_V-207" edge="1">
          <mxGeometry width="50" height="50" relative="1" as="geometry">
            <mxPoint x="521" y="50" as="sourcePoint" />
            <mxPoint x="523" y="326" as="targetPoint" />
          </mxGeometry>
        </mxCell>
        <mxCell id="jd9A4PB5AfPvnsOYDj_V-176" value="Середовища розгортання" style="text;html=1;strokeColor=none;fillColor=none;align=left;verticalAlign=middle;whiteSpace=wrap;rounded=0;fontSize=8;" parent="jd9A4PB5AfPvnsOYDj_V-207" vertex="1">
          <mxGeometry x="580" y="55" width="61" height="40.14" as="geometry" />
        </mxCell>
        <mxCell id="iZYhkjXPLXinA8Z1_ec2-33" value="Конфігурація програмного продукту" style="text;html=1;strokeColor=none;fillColor=none;align=left;verticalAlign=middle;whiteSpace=wrap;rounded=0;fontSize=8;" parent="jd9A4PB5AfPvnsOYDj_V-207" vertex="1">
          <mxGeometry x="519" y="55" width="61" height="40.14" as="geometry" />
        </mxCell>
        <mxCell id="jd9A4PB5AfPvnsOYDj_V-209" value="" style="group" parent="1" connectable="0" vertex="1">
          <mxGeometry x="100" y="1490" width="650" height="50" as="geometry" />
        </mxCell>
        <mxCell id="jd9A4PB5AfPvnsOYDj_V-210" value="" style="rounded=0;whiteSpace=wrap;html=1;" parent="jd9A4PB5AfPvnsOYDj_V-209" vertex="1">
          <mxGeometry x="4" y="10" width="646" height="40" as="geometry" />
        </mxCell>
        <mxCell id="jd9A4PB5AfPvnsOYDj_V-211" value="&lt;b&gt;&lt;br&gt;A2&lt;/b&gt;" style="rounded=0;whiteSpace=wrap;html=1;strokeColor=default;" parent="jd9A4PB5AfPvnsOYDj_V-209" vertex="1">
          <mxGeometry x="4" y="10" width="120" height="40" as="geometry" />
        </mxCell>
        <mxCell id="jd9A4PB5AfPvnsOYDj_V-212" value="&lt;b&gt;&lt;i&gt;Реалізація програмного забезпечення&lt;/i&gt;&lt;/b&gt;" style="rounded=0;whiteSpace=wrap;html=1;align=center;" parent="jd9A4PB5AfPvnsOYDj_V-209" vertex="1">
          <mxGeometry x="124" y="10" width="356" height="40" as="geometry" />
        </mxCell>
        <mxCell id="jd9A4PB5AfPvnsOYDj_V-213" value="" style="rounded=0;whiteSpace=wrap;html=1;" parent="jd9A4PB5AfPvnsOYDj_V-209" vertex="1">
          <mxGeometry x="480" y="10" width="170" height="40" as="geometry" />
        </mxCell>
        <mxCell id="jd9A4PB5AfPvnsOYDj_V-214" value="" style="rounded=0;whiteSpace=wrap;html=1;" parent="jd9A4PB5AfPvnsOYDj_V-209" vertex="1">
          <mxGeometry x="590" y="30" width="60" height="20" as="geometry" />
        </mxCell>
        <mxCell id="jd9A4PB5AfPvnsOYDj_V-215" value="&lt;font style=&quot;font-size: 10px;&quot;&gt;NODE:&lt;/font&gt;" style="text;html=1;strokeColor=none;fillColor=none;align=center;verticalAlign=middle;whiteSpace=wrap;rounded=0;" parent="jd9A4PB5AfPvnsOYDj_V-209" vertex="1">
          <mxGeometry y="10" width="40" height="10" as="geometry" />
        </mxCell>
        <mxCell id="jd9A4PB5AfPvnsOYDj_V-216" value="&lt;font style=&quot;font-size: 10px;&quot;&gt;TITLE:&lt;/font&gt;" style="text;html=1;strokeColor=none;fillColor=none;align=center;verticalAlign=middle;whiteSpace=wrap;rounded=0;" parent="jd9A4PB5AfPvnsOYDj_V-209" vertex="1">
          <mxGeometry x="124" y="5" width="40" height="20" as="geometry" />
        </mxCell>
        <mxCell id="jd9A4PB5AfPvnsOYDj_V-217" value="&lt;font style=&quot;font-size: 10px;&quot;&gt;NUMBER:&lt;/font&gt;" style="text;html=1;strokeColor=none;fillColor=none;align=center;verticalAlign=middle;whiteSpace=wrap;rounded=0;" parent="jd9A4PB5AfPvnsOYDj_V-209" vertex="1">
          <mxGeometry x="480" width="50" height="30" as="geometry" />
        </mxCell>
        <mxCell id="jd9A4PB5AfPvnsOYDj_V-303" value="" style="group" parent="1" connectable="0" vertex="1">
          <mxGeometry x="99" y="1090" width="646" height="50" as="geometry" />
        </mxCell>
        <mxCell id="jd9A4PB5AfPvnsOYDj_V-304" value="" style="rounded=0;whiteSpace=wrap;html=1;" parent="jd9A4PB5AfPvnsOYDj_V-303" vertex="1">
          <mxGeometry width="646" height="50" as="geometry" />
        </mxCell>
        <mxCell id="jd9A4PB5AfPvnsOYDj_V-305" value="&lt;div style=&quot;&quot;&gt;&lt;span style=&quot;font-size: 9px; background-color: initial;&quot;&gt;USED AT:&lt;/span&gt;&lt;/div&gt;&lt;font style=&quot;&quot;&gt;&lt;div style=&quot;&quot;&gt;&lt;font size=&quot;1&quot;&gt;&lt;br&gt;&lt;/font&gt;&lt;/div&gt;&lt;/font&gt;&lt;div style=&quot;&quot;&gt;&lt;br&gt;&lt;/div&gt;" style="rounded=0;whiteSpace=wrap;html=1;align=left;" parent="jd9A4PB5AfPvnsOYDj_V-303" vertex="1">
          <mxGeometry width="56" height="50" as="geometry" />
        </mxCell>
        <mxCell id="jd9A4PB5AfPvnsOYDj_V-306" value="" style="rounded=0;whiteSpace=wrap;html=1;" parent="jd9A4PB5AfPvnsOYDj_V-303" vertex="1">
          <mxGeometry x="56" width="260" height="50" as="geometry" />
        </mxCell>
        <mxCell id="jd9A4PB5AfPvnsOYDj_V-307" value="" style="rounded=0;whiteSpace=wrap;html=1;" parent="jd9A4PB5AfPvnsOYDj_V-303" vertex="1">
          <mxGeometry x="316" width="20" height="50" as="geometry" />
        </mxCell>
        <mxCell id="jd9A4PB5AfPvnsOYDj_V-308" value="" style="rounded=0;whiteSpace=wrap;html=1;" parent="jd9A4PB5AfPvnsOYDj_V-303" vertex="1">
          <mxGeometry x="336" width="110" height="50" as="geometry" />
        </mxCell>
        <mxCell id="jd9A4PB5AfPvnsOYDj_V-309" value="" style="rounded=0;whiteSpace=wrap;html=1;" parent="jd9A4PB5AfPvnsOYDj_V-303" vertex="1">
          <mxGeometry x="446" width="110" height="50" as="geometry" />
        </mxCell>
        <mxCell id="jd9A4PB5AfPvnsOYDj_V-310" value="" style="rounded=0;whiteSpace=wrap;html=1;" parent="jd9A4PB5AfPvnsOYDj_V-303" vertex="1">
          <mxGeometry x="336" width="110" height="10" as="geometry" />
        </mxCell>
        <mxCell id="jd9A4PB5AfPvnsOYDj_V-311" value="" style="rounded=0;whiteSpace=wrap;html=1;" parent="jd9A4PB5AfPvnsOYDj_V-303" vertex="1">
          <mxGeometry x="336" y="10" width="110" height="10" as="geometry" />
        </mxCell>
        <mxCell id="jd9A4PB5AfPvnsOYDj_V-312" value="" style="rounded=0;whiteSpace=wrap;html=1;" parent="jd9A4PB5AfPvnsOYDj_V-303" vertex="1">
          <mxGeometry x="336" y="20" width="110" height="10" as="geometry" />
        </mxCell>
        <mxCell id="jd9A4PB5AfPvnsOYDj_V-313" value="" style="rounded=0;whiteSpace=wrap;html=1;" parent="jd9A4PB5AfPvnsOYDj_V-303" vertex="1">
          <mxGeometry x="336" y="30" width="110" height="10" as="geometry" />
        </mxCell>
        <mxCell id="jd9A4PB5AfPvnsOYDj_V-314" value="" style="rounded=0;whiteSpace=wrap;html=1;" parent="jd9A4PB5AfPvnsOYDj_V-303" vertex="1">
          <mxGeometry x="336" y="40" width="110" height="10" as="geometry" />
        </mxCell>
        <mxCell id="jd9A4PB5AfPvnsOYDj_V-315" value="" style="rounded=0;whiteSpace=wrap;html=1;" parent="jd9A4PB5AfPvnsOYDj_V-303" vertex="1">
          <mxGeometry x="446" width="110" height="10" as="geometry" />
        </mxCell>
        <mxCell id="jd9A4PB5AfPvnsOYDj_V-316" value="" style="rounded=0;whiteSpace=wrap;html=1;" parent="jd9A4PB5AfPvnsOYDj_V-303" vertex="1">
          <mxGeometry x="446" y="10" width="110" height="10" as="geometry" />
        </mxCell>
        <mxCell id="jd9A4PB5AfPvnsOYDj_V-317" value="" style="rounded=0;whiteSpace=wrap;html=1;" parent="jd9A4PB5AfPvnsOYDj_V-303" vertex="1">
          <mxGeometry x="446" y="20" width="110" height="10" as="geometry" />
        </mxCell>
        <mxCell id="jd9A4PB5AfPvnsOYDj_V-318" value="" style="rounded=0;whiteSpace=wrap;html=1;" parent="jd9A4PB5AfPvnsOYDj_V-303" vertex="1">
          <mxGeometry x="446" y="30" width="110" height="10" as="geometry" />
        </mxCell>
        <mxCell id="jd9A4PB5AfPvnsOYDj_V-319" value="" style="rounded=0;whiteSpace=wrap;html=1;" parent="jd9A4PB5AfPvnsOYDj_V-303" vertex="1">
          <mxGeometry x="446" y="40" width="110" height="10" as="geometry" />
        </mxCell>
        <mxCell id="jd9A4PB5AfPvnsOYDj_V-320" value="" style="rounded=0;whiteSpace=wrap;html=1;" parent="jd9A4PB5AfPvnsOYDj_V-303" vertex="1">
          <mxGeometry x="316" width="20" height="10" as="geometry" />
        </mxCell>
        <mxCell id="jd9A4PB5AfPvnsOYDj_V-321" value="" style="rounded=0;whiteSpace=wrap;html=1;" parent="jd9A4PB5AfPvnsOYDj_V-303" vertex="1">
          <mxGeometry x="316" y="10" width="20" height="10" as="geometry" />
        </mxCell>
        <mxCell id="jd9A4PB5AfPvnsOYDj_V-322" value="" style="rounded=0;whiteSpace=wrap;html=1;" parent="jd9A4PB5AfPvnsOYDj_V-303" vertex="1">
          <mxGeometry x="316" y="20" width="20" height="10" as="geometry" />
        </mxCell>
        <mxCell id="jd9A4PB5AfPvnsOYDj_V-323" value="" style="rounded=0;whiteSpace=wrap;html=1;" parent="jd9A4PB5AfPvnsOYDj_V-303" vertex="1">
          <mxGeometry x="316" y="30" width="20" height="10" as="geometry" />
        </mxCell>
        <mxCell id="jd9A4PB5AfPvnsOYDj_V-324" value="" style="rounded=0;whiteSpace=wrap;html=1;" parent="jd9A4PB5AfPvnsOYDj_V-303" vertex="1">
          <mxGeometry x="316" y="40" width="20" height="10" as="geometry" />
        </mxCell>
        <mxCell id="jd9A4PB5AfPvnsOYDj_V-347" style="edgeStyle=orthogonalEdgeStyle;rounded=0;orthogonalLoop=1;jettySize=auto;html=1;exitX=1;exitY=0.5;exitDx=0;exitDy=0;entryX=0;entryY=0.5;entryDx=0;entryDy=0;" parent="1" edge="1">
          <mxGeometry relative="1" as="geometry">
            <Array as="points">
              <mxPoint x="240" y="1260" />
              <mxPoint x="258" y="1260" />
              <mxPoint x="258" y="1325" />
            </Array>
            <mxPoint x="240" y="1275.9999999999998" as="sourcePoint" />
            <mxPoint x="270" y="1325" as="targetPoint" />
          </mxGeometry>
        </mxCell>
        <mxCell id="jd9A4PB5AfPvnsOYDj_V-350" style="edgeStyle=orthogonalEdgeStyle;rounded=0;orthogonalLoop=1;jettySize=auto;html=1;exitX=1;exitY=0.25;exitDx=0;exitDy=0;entryX=0;entryY=0.25;entryDx=0;entryDy=0;" parent="1" edge="1">
          <mxGeometry relative="1" as="geometry">
            <Array as="points">
              <mxPoint x="240" y="1230" />
              <mxPoint x="570" y="1230" />
              <mxPoint x="570" y="1385" />
            </Array>
            <mxPoint x="240" y="1243.5" as="sourcePoint" />
            <mxPoint x="580.49" y="1385" as="targetPoint" />
          </mxGeometry>
        </mxCell>
        <mxCell id="jd9A4PB5AfPvnsOYDj_V-353" style="edgeStyle=orthogonalEdgeStyle;rounded=0;orthogonalLoop=1;jettySize=auto;html=1;exitX=1;exitY=0.5;exitDx=0;exitDy=0;entryX=0;entryY=0.5;entryDx=0;entryDy=0;" parent="1" edge="1">
          <mxGeometry relative="1" as="geometry">
            <Array as="points">
              <mxPoint x="420" y="1325" />
              <mxPoint x="420" y="1360" />
            </Array>
            <mxPoint x="410" y="1325" as="sourcePoint" />
            <mxPoint x="433" y="1360" as="targetPoint" />
          </mxGeometry>
        </mxCell>
        <mxCell id="jd9A4PB5AfPvnsOYDj_V-352" style="edgeStyle=orthogonalEdgeStyle;rounded=0;orthogonalLoop=1;jettySize=auto;html=1;exitX=1;exitY=0.5;exitDx=0;exitDy=0;entryX=0;entryY=0.75;entryDx=0;entryDy=0;" parent="1" edge="1">
          <mxGeometry relative="1" as="geometry">
            <Array as="points">
              <mxPoint x="558" y="1360" />
              <mxPoint x="558" y="1415" />
            </Array>
            <mxPoint x="553" y="1360" as="sourcePoint" />
            <mxPoint x="580.49" y="1415" as="targetPoint" />
          </mxGeometry>
        </mxCell>
        <mxCell id="jd9A4PB5AfPvnsOYDj_V-336" style="edgeStyle=orthogonalEdgeStyle;rounded=0;orthogonalLoop=1;jettySize=auto;html=1;exitX=0;exitY=0.25;exitDx=0;exitDy=0;entryX=0;entryY=0.25;entryDx=0;entryDy=0;" parent="1" edge="1">
          <mxGeometry relative="1" as="geometry">
            <mxPoint x="104" y="1262" as="sourcePoint" />
            <mxPoint x="160" y="1267" as="targetPoint" />
            <Array as="points">
              <mxPoint x="104" y="1267" />
            </Array>
          </mxGeometry>
        </mxCell>
        <mxCell id="jd9A4PB5AfPvnsOYDj_V-355" style="edgeStyle=orthogonalEdgeStyle;rounded=0;orthogonalLoop=1;jettySize=auto;html=1;exitX=1;exitY=0.25;exitDx=0;exitDy=0;entryX=0.999;entryY=0.656;entryDx=0;entryDy=0;entryPerimeter=0;" parent="1" target="jd9A4PB5AfPvnsOYDj_V-208" edge="1">
          <mxGeometry relative="1" as="geometry">
            <Array as="points">
              <mxPoint x="720" y="1385" />
              <mxPoint x="720" y="1385" />
            </Array>
            <mxPoint x="700.49" y="1385" as="sourcePoint" />
          </mxGeometry>
        </mxCell>
        <mxCell id="jd9A4PB5AfPvnsOYDj_V-356" style="edgeStyle=isometricEdgeStyle;rounded=0;orthogonalLoop=1;jettySize=auto;html=1;exitX=0;exitY=0.5;exitDx=0;exitDy=0;shape=link;width=0;" parent="1" source="jd9A4PB5AfPvnsOYDj_V-357" edge="1">
          <mxGeometry relative="1" as="geometry">
            <mxPoint x="240" y="1230" as="targetPoint" />
          </mxGeometry>
        </mxCell>
        <mxCell id="jd9A4PB5AfPvnsOYDj_V-357" value="Помилки в коді" style="text;html=1;strokeColor=none;fillColor=none;align=left;verticalAlign=middle;whiteSpace=wrap;rounded=0;fontSize=8;" parent="1" vertex="1">
          <mxGeometry x="266" y="1192" width="60" height="30" as="geometry" />
        </mxCell>
        <mxCell id="jd9A4PB5AfPvnsOYDj_V-358" style="edgeStyle=isometricEdgeStyle;rounded=0;orthogonalLoop=1;jettySize=auto;html=1;exitX=0;exitY=0.5;exitDx=0;exitDy=0;shape=link;width=0;" parent="1" source="jd9A4PB5AfPvnsOYDj_V-359" edge="1">
          <mxGeometry relative="1" as="geometry">
            <mxPoint x="240" y="1260" as="targetPoint" />
          </mxGeometry>
        </mxCell>
        <mxCell id="jd9A4PB5AfPvnsOYDj_V-359" value="Готовий код" style="text;html=1;strokeColor=none;fillColor=none;align=left;verticalAlign=middle;whiteSpace=wrap;rounded=0;fontSize=8;" parent="1" vertex="1">
          <mxGeometry x="280" y="1240" width="60" height="30" as="geometry" />
        </mxCell>
        <mxCell id="jd9A4PB5AfPvnsOYDj_V-362" style="edgeStyle=isometricEdgeStyle;rounded=0;orthogonalLoop=1;jettySize=auto;html=1;exitX=0;exitY=0.75;exitDx=0;exitDy=0;shape=link;width=0;" parent="1" source="jd9A4PB5AfPvnsOYDj_V-363" edge="1">
          <mxGeometry relative="1" as="geometry">
            <mxPoint x="420" y="1330" as="targetPoint" />
          </mxGeometry>
        </mxCell>
        <mxCell id="jd9A4PB5AfPvnsOYDj_V-363" value="Код з коментарями" style="text;html=1;strokeColor=none;fillColor=none;align=left;verticalAlign=middle;whiteSpace=wrap;rounded=0;fontSize=8;" parent="1" vertex="1">
          <mxGeometry x="447.5" y="1259.85" width="75" height="30" as="geometry" />
        </mxCell>
        <mxCell id="jd9A4PB5AfPvnsOYDj_V-364" style="edgeStyle=isometricEdgeStyle;rounded=0;orthogonalLoop=1;jettySize=auto;html=1;exitX=0;exitY=0.5;exitDx=0;exitDy=0;shape=link;width=0.7142857142857153;" parent="1" source="jd9A4PB5AfPvnsOYDj_V-365" edge="1">
          <mxGeometry relative="1" as="geometry">
            <mxPoint x="553" y="1355" as="targetPoint" />
          </mxGeometry>
        </mxCell>
        <mxCell id="jd9A4PB5AfPvnsOYDj_V-365" value="Документи не відповідають вимогам або містять помилки" style="text;html=1;strokeColor=none;fillColor=none;align=left;verticalAlign=middle;whiteSpace=wrap;rounded=0;fontSize=8;" parent="1" vertex="1">
          <mxGeometry x="586" y="1310" width="94" height="30" as="geometry" />
        </mxCell>
        <mxCell id="jd9A4PB5AfPvnsOYDj_V-371" value="Програмне забезпечення" style="text;html=1;strokeColor=none;fillColor=none;align=left;verticalAlign=middle;whiteSpace=wrap;rounded=0;fontSize=8;" parent="1" vertex="1">
          <mxGeometry x="690" y="1345" width="60" height="30" as="geometry" />
        </mxCell>
        <mxCell id="s8ZQ7hbqVME3BxH62Z-t-18" style="edgeStyle=orthogonalEdgeStyle;rounded=0;orthogonalLoop=1;jettySize=auto;html=1;exitX=0.25;exitY=1;exitDx=0;exitDy=0;entryX=0.5;entryY=0;entryDx=0;entryDy=0;" parent="1" source="jd9A4PB5AfPvnsOYDj_V-306" edge="1">
          <mxGeometry relative="1" as="geometry">
            <mxPoint x="200" y="1211" as="targetPoint" />
            <Array as="points">
              <mxPoint x="200" y="1140" />
            </Array>
          </mxGeometry>
        </mxCell>
        <mxCell id="s8ZQ7hbqVME3BxH62Z-t-19" value="Назва програмного забезпечення" style="text;html=1;strokeColor=none;fillColor=none;align=right;verticalAlign=middle;whiteSpace=wrap;rounded=0;fontSize=8;" parent="1" vertex="1">
          <mxGeometry x="140" y="1150" width="60" height="30" as="geometry" />
        </mxCell>
        <mxCell id="s8ZQ7hbqVME3BxH62Z-t-20" style="edgeStyle=orthogonalEdgeStyle;rounded=0;orthogonalLoop=1;jettySize=auto;html=1;exitX=0.75;exitY=1;exitDx=0;exitDy=0;entryX=0.5;entryY=0;entryDx=0;entryDy=0;" parent="1" source="jd9A4PB5AfPvnsOYDj_V-306" edge="1">
          <mxGeometry relative="1" as="geometry">
            <mxPoint x="340" y="1290" as="targetPoint" />
            <Array as="points">
              <mxPoint x="340" y="1140" />
            </Array>
          </mxGeometry>
        </mxCell>
        <mxCell id="s8ZQ7hbqVME3BxH62Z-t-21" value="Матеріали для коментування" style="text;html=1;strokeColor=none;fillColor=none;align=left;verticalAlign=middle;whiteSpace=wrap;rounded=0;fontSize=8;" parent="1" vertex="1">
          <mxGeometry x="340" y="1150" width="60" height="30" as="geometry" />
        </mxCell>
        <mxCell id="s8ZQ7hbqVME3BxH62Z-t-22" style="edgeStyle=orthogonalEdgeStyle;rounded=0;orthogonalLoop=1;jettySize=auto;html=1;exitX=0.75;exitY=1;exitDx=0;exitDy=0;" parent="1" source="jd9A4PB5AfPvnsOYDj_V-306" edge="1">
          <mxGeometry relative="1" as="geometry">
            <mxPoint x="493" y="1330" as="targetPoint" />
            <Array as="points">
              <mxPoint x="493" y="1140" />
              <mxPoint x="493" y="1330" />
            </Array>
          </mxGeometry>
        </mxCell>
        <mxCell id="s8ZQ7hbqVME3BxH62Z-t-23" value="Веб-сайт з прикладами документації" style="text;html=1;strokeColor=none;fillColor=none;align=left;verticalAlign=middle;whiteSpace=wrap;rounded=0;fontSize=8;" parent="1" vertex="1">
          <mxGeometry x="493" y="1150" width="60" height="30" as="geometry" />
        </mxCell>
        <mxCell id="s8ZQ7hbqVME3BxH62Z-t-24" style="edgeStyle=orthogonalEdgeStyle;rounded=0;orthogonalLoop=1;jettySize=auto;html=1;exitX=0.5;exitY=1;exitDx=0;exitDy=0;entryX=0.5;entryY=0;entryDx=0;entryDy=0;" parent="1" source="jd9A4PB5AfPvnsOYDj_V-319" edge="1">
          <mxGeometry relative="1" as="geometry">
            <mxPoint x="640.49" y="1370" as="targetPoint" />
            <Array as="points">
              <mxPoint x="640" y="1140" />
              <mxPoint x="640" y="1255" />
            </Array>
          </mxGeometry>
        </mxCell>
        <mxCell id="s8ZQ7hbqVME3BxH62Z-t-25" value="Методичні рекомендації" style="text;html=1;strokeColor=none;fillColor=none;align=left;verticalAlign=middle;whiteSpace=wrap;rounded=0;fontSize=8;" parent="1" vertex="1">
          <mxGeometry x="640.49" y="1150" width="60" height="30" as="geometry" />
        </mxCell>
        <mxCell id="s8ZQ7hbqVME3BxH62Z-t-27" value="" style="group;fontSize=10;verticalAlign=middle;horizontal=1;fontFamily=Times New Roman;" parent="1" connectable="0" vertex="1">
          <mxGeometry x="159" y="1210" width="81" height="130" as="geometry" />
        </mxCell>
        <mxCell id="s8ZQ7hbqVME3BxH62Z-t-28" value="Кодування" style="rounded=0;whiteSpace=wrap;html=1;fontSize=10;verticalAlign=middle;horizontal=1;fontFamily=Times New Roman;" parent="s8ZQ7hbqVME3BxH62Z-t-27" vertex="1">
          <mxGeometry width="81" height="130" as="geometry" />
        </mxCell>
        <mxCell id="s8ZQ7hbqVME3BxH62Z-t-29" value="Ор." style="text;html=1;strokeColor=none;fillColor=none;align=center;verticalAlign=middle;whiteSpace=wrap;rounded=0;fontSize=10;horizontal=1;fontFamily=Times New Roman;" parent="s8ZQ7hbqVME3BxH62Z-t-27" vertex="1">
          <mxGeometry y="86.6666666666667" width="19.44" height="43.33333333333335" as="geometry" />
        </mxCell>
        <mxCell id="s8ZQ7hbqVME3BxH62Z-t-30" value="1" style="text;html=1;strokeColor=none;fillColor=none;align=center;verticalAlign=middle;whiteSpace=wrap;rounded=0;fontSize=10;horizontal=1;fontFamily=Times New Roman;" parent="s8ZQ7hbqVME3BxH62Z-t-27" vertex="1">
          <mxGeometry x="70.63200000000002" y="86.6666666666667" width="9.72" height="43.33333333333335" as="geometry" />
        </mxCell>
        <mxCell id="s8ZQ7hbqVME3BxH62Z-t-31" value="" style="group;fontSize=10;verticalAlign=middle;horizontal=1;fontFamily=Times New Roman;" parent="1" connectable="0" vertex="1">
          <mxGeometry x="270" y="1289.85" width="140" height="70.29" as="geometry" />
        </mxCell>
        <mxCell id="s8ZQ7hbqVME3BxH62Z-t-32" value="Коментування" style="rounded=0;whiteSpace=wrap;html=1;fontSize=10;verticalAlign=middle;horizontal=1;fontFamily=Times New Roman;" parent="s8ZQ7hbqVME3BxH62Z-t-31" vertex="1">
          <mxGeometry width="140" height="70.29" as="geometry" />
        </mxCell>
        <mxCell id="s8ZQ7hbqVME3BxH62Z-t-33" value="Ор." style="text;html=1;strokeColor=none;fillColor=none;align=center;verticalAlign=middle;whiteSpace=wrap;rounded=0;fontSize=10;horizontal=1;fontFamily=Times New Roman;" parent="s8ZQ7hbqVME3BxH62Z-t-31" vertex="1">
          <mxGeometry y="46.860000000000014" width="33.6" height="23.430000000000007" as="geometry" />
        </mxCell>
        <mxCell id="s8ZQ7hbqVME3BxH62Z-t-34" value="2" style="text;html=1;strokeColor=none;fillColor=none;align=center;verticalAlign=middle;whiteSpace=wrap;rounded=0;fontSize=10;horizontal=1;fontFamily=Times New Roman;" parent="s8ZQ7hbqVME3BxH62Z-t-31" vertex="1">
          <mxGeometry x="122.08000000000003" y="46.860000000000014" width="16.8" height="23.430000000000007" as="geometry" />
        </mxCell>
        <mxCell id="s8ZQ7hbqVME3BxH62Z-t-35" value="" style="group;fontSize=10;verticalAlign=middle;horizontal=1;fontFamily=Times New Roman;" parent="1" connectable="0" vertex="1">
          <mxGeometry x="433" y="1329.8600000000001" width="120" height="60.29" as="geometry" />
        </mxCell>
        <mxCell id="s8ZQ7hbqVME3BxH62Z-t-36" value="Документування" style="rounded=0;whiteSpace=wrap;html=1;fontSize=10;verticalAlign=middle;horizontal=1;fontFamily=Times New Roman;" parent="s8ZQ7hbqVME3BxH62Z-t-35" vertex="1">
          <mxGeometry width="120" height="60.29" as="geometry" />
        </mxCell>
        <mxCell id="s8ZQ7hbqVME3BxH62Z-t-37" value="Ор." style="text;html=1;strokeColor=none;fillColor=none;align=center;verticalAlign=middle;whiteSpace=wrap;rounded=0;fontSize=10;horizontal=1;fontFamily=Times New Roman;" parent="s8ZQ7hbqVME3BxH62Z-t-35" vertex="1">
          <mxGeometry y="40.19333333333334" width="28.8" height="20.09666666666667" as="geometry" />
        </mxCell>
        <mxCell id="s8ZQ7hbqVME3BxH62Z-t-38" value="3" style="text;html=1;strokeColor=none;fillColor=none;align=center;verticalAlign=middle;whiteSpace=wrap;rounded=0;fontSize=10;horizontal=1;fontFamily=Times New Roman;" parent="s8ZQ7hbqVME3BxH62Z-t-35" vertex="1">
          <mxGeometry x="104.64000000000001" y="40.19333333333334" width="14.4" height="20.09666666666667" as="geometry" />
        </mxCell>
        <mxCell id="s8ZQ7hbqVME3BxH62Z-t-39" value="" style="group;fontSize=10;verticalAlign=middle;horizontal=1;fontFamily=Times New Roman;" parent="1" connectable="0" vertex="1">
          <mxGeometry x="580.49" y="1370" width="120" height="60.29" as="geometry" />
        </mxCell>
        <mxCell id="s8ZQ7hbqVME3BxH62Z-t-40" value="Налагодження" style="rounded=0;whiteSpace=wrap;html=1;fontSize=10;verticalAlign=middle;horizontal=1;fontFamily=Times New Roman;" parent="s8ZQ7hbqVME3BxH62Z-t-39" vertex="1">
          <mxGeometry width="120" height="60.29" as="geometry" />
        </mxCell>
        <mxCell id="s8ZQ7hbqVME3BxH62Z-t-41" value="Ор." style="text;html=1;strokeColor=none;fillColor=none;align=center;verticalAlign=middle;whiteSpace=wrap;rounded=0;fontSize=10;horizontal=1;fontFamily=Times New Roman;" parent="s8ZQ7hbqVME3BxH62Z-t-39" vertex="1">
          <mxGeometry y="40.19333333333334" width="28.8" height="20.09666666666667" as="geometry" />
        </mxCell>
        <mxCell id="s8ZQ7hbqVME3BxH62Z-t-42" value="4" style="text;html=1;strokeColor=none;fillColor=none;align=center;verticalAlign=middle;whiteSpace=wrap;rounded=0;fontSize=10;horizontal=1;fontFamily=Times New Roman;" parent="s8ZQ7hbqVME3BxH62Z-t-39" vertex="1">
          <mxGeometry x="104.64000000000001" y="40.19333333333334" width="14.4" height="20.09666666666667" as="geometry" />
        </mxCell>
        <mxCell id="iZYhkjXPLXinA8Z1_ec2-6" value="" style="endArrow=classic;html=1;rounded=0;entryX=0.5;entryY=0;entryDx=0;entryDy=0;exitX=0.945;exitY=0.922;exitDx=0;exitDy=0;exitPerimeter=0;" parent="1" edge="1">
          <mxGeometry width="50" height="50" relative="1" as="geometry">
            <mxPoint x="670.49" y="634.36" as="sourcePoint" />
            <mxPoint x="672.49" y="910.36" as="targetPoint" />
          </mxGeometry>
        </mxCell>
        <mxCell id="iZYhkjXPLXinA8Z1_ec2-35" value="Дані для розробки пз" style="text;html=1;strokeColor=none;fillColor=none;align=center;verticalAlign=middle;whiteSpace=wrap;rounded=0;fontSize=8;" parent="1" vertex="1">
          <mxGeometry x="100" y="1240" width="60" height="30" as="geometry" />
        </mxCell>
        <mxCell id="hKFmmAUweEzZvJHmMoMA-2" value="" style="endArrow=classic;html=1;rounded=0;entryX=0.5;entryY=1;entryDx=0;entryDy=0;" edge="1" parent="1" target="s8ZQ7hbqVME3BxH62Z-t-28">
          <mxGeometry width="50" height="50" relative="1" as="geometry">
            <mxPoint x="199" y="1500" as="sourcePoint" />
            <mxPoint x="200" y="1410" as="targetPoint" />
          </mxGeometry>
        </mxCell>
        <mxCell id="hKFmmAUweEzZvJHmMoMA-4" value="Розробник" style="text;html=1;strokeColor=none;fillColor=none;align=center;verticalAlign=middle;whiteSpace=wrap;rounded=0;" vertex="1" parent="1">
          <mxGeometry x="140" y="1460" width="60" height="30" as="geometry" />
        </mxCell>
        <mxCell id="hKFmmAUweEzZvJHmMoMA-5" value="" style="endArrow=classic;html=1;rounded=0;entryX=0.5;entryY=1;entryDx=0;entryDy=0;exitX=0.327;exitY=0.008;exitDx=0;exitDy=0;exitPerimeter=0;" edge="1" parent="1" source="jd9A4PB5AfPvnsOYDj_V-212" target="s8ZQ7hbqVME3BxH62Z-t-32">
          <mxGeometry width="50" height="50" relative="1" as="geometry">
            <mxPoint x="340" y="1460" as="sourcePoint" />
            <mxPoint x="390" y="1410" as="targetPoint" />
          </mxGeometry>
        </mxCell>
        <mxCell id="hKFmmAUweEzZvJHmMoMA-6" value="Розробник" style="text;html=1;strokeColor=none;fillColor=none;align=center;verticalAlign=middle;whiteSpace=wrap;rounded=0;" vertex="1" parent="1">
          <mxGeometry x="280" y="1460" width="60" height="30" as="geometry" />
        </mxCell>
        <mxCell id="hKFmmAUweEzZvJHmMoMA-7" value="" style="endArrow=classic;html=1;rounded=0;entryX=0.5;entryY=1;entryDx=0;entryDy=0;exitX=0.75;exitY=0;exitDx=0;exitDy=0;" edge="1" parent="1" source="jd9A4PB5AfPvnsOYDj_V-212" target="s8ZQ7hbqVME3BxH62Z-t-36">
          <mxGeometry width="50" height="50" relative="1" as="geometry">
            <mxPoint x="460" y="1480" as="sourcePoint" />
            <mxPoint x="510" y="1430" as="targetPoint" />
          </mxGeometry>
        </mxCell>
        <mxCell id="hKFmmAUweEzZvJHmMoMA-9" value="Розробник" style="text;html=1;strokeColor=none;fillColor=none;align=center;verticalAlign=middle;whiteSpace=wrap;rounded=0;" vertex="1" parent="1">
          <mxGeometry x="430" y="1460" width="60" height="30" as="geometry" />
        </mxCell>
        <mxCell id="hKFmmAUweEzZvJHmMoMA-10" value="" style="endArrow=classic;html=1;rounded=0;entryX=0.5;entryY=1;entryDx=0;entryDy=0;exitX=0.355;exitY=-0.075;exitDx=0;exitDy=0;exitPerimeter=0;" edge="1" parent="1" source="jd9A4PB5AfPvnsOYDj_V-213" target="s8ZQ7hbqVME3BxH62Z-t-40">
          <mxGeometry width="50" height="50" relative="1" as="geometry">
            <mxPoint x="600" y="1500" as="sourcePoint" />
            <mxPoint x="650" y="1450" as="targetPoint" />
          </mxGeometry>
        </mxCell>
        <mxCell id="hKFmmAUweEzZvJHmMoMA-11" value="Розробник" style="text;html=1;strokeColor=none;fillColor=none;align=center;verticalAlign=middle;whiteSpace=wrap;rounded=0;" vertex="1" parent="1">
          <mxGeometry x="580.49" y="1460" width="60" height="30" as="geometry" />
        </mxCell>
      </root>
    </mxGraphModel>
  </diagram>
</mxfile>
